<svg width="228" height="90" viewBox="0 0 228 90" fill="none" xmlns="http://www.w3.org/2000/svg">
<g clip-path="url(#clip0_13926_6452)">
<path d="M50.2089 1.57L71.4191 22.83C71.9994 23.41 72.9949 23 72.9949 22.185V0.915C72.9949 0.41 72.5847 0 72.0744 0H50.8592C50.0389 0 49.6287 0.99 50.2039 1.57H50.2089Z" fill="#FFD54F"/>
<path d="M70.4292 23.9502C70.4292 23.9502 58.1383 11.2702 50.1294 3.77516C47.9484 1.53016 46.0075 0.370156 43.4362 0.0601563C30.1398 -0.0148438 20.3401 -0.0148438 8.12929 0.0601563C5.87321 0.215156 5.25291 1.91516 5.32795 3.15516V15.5252C5.56306 18.3052 6.96373 18.7702 8.59452 18.9252H40.2497C46.1625 18.9252 49.5842 22.5552 49.5842 25.6502V29.1352C49.5842 29.6452 49.174 30.0552 48.6637 30.0502C44.8669 30.0202 30.2949 29.9052 23.2966 29.9052C-1.80047 29.9052 -13.2109 74.6202 23.2966 80.0002H67.8629C67.8629 80.0002 72.8403 79.8451 72.9954 77.0901V32.4802C73.0704 26.3452 70.4292 23.9502 70.4292 23.9502ZM49.9393 66.3152H28.5141C20.6953 66.3152 14.8575 63.6652 14.3623 55.6702C14.3623 47.8552 20.7003 44.5202 28.5141 44.5202H49.9393C50.5046 44.5202 50.9648 44.9802 50.9648 45.5452V65.2852C50.9648 65.8502 50.5046 66.3102 49.9393 66.3102V66.3152Z" fill="#00BAA5"/>
</g>
<path d="M100.731 57.903C101.338 57.903 101.835 58.1099 102.221 58.5237C102.607 58.9099 102.8 59.4065 102.8 60.0134V77.8896C102.8 78.4965 102.607 79.0069 102.221 79.4207C101.835 79.8069 101.338 80 100.731 80C100.152 80 99.6556 79.8069 99.2418 79.4207C98.8555 79.0069 98.6624 78.4965 98.6624 77.8896V74.9102L99.5314 75.0344C99.5314 75.5309 99.3245 76.0827 98.9107 76.6896C98.5245 77.2965 97.9866 77.8896 97.2969 78.4689C96.6072 79.0207 95.7934 79.4896 94.8555 79.8759C93.9175 80.2345 92.9106 80.4138 91.8347 80.4138C89.9312 80.4138 88.2209 79.931 86.7036 78.9655C85.1863 77.9724 83.9863 76.6206 83.1035 74.9102C82.2207 73.1999 81.7793 71.255 81.7793 69.0756C81.7793 66.8411 82.2207 64.8825 83.1035 63.1997C83.9863 61.4893 85.1725 60.1513 86.6622 59.1858C88.1795 58.2203 89.8623 57.7375 91.7106 57.7375C92.8968 57.7375 93.9865 57.9306 94.9796 58.3168C96.0003 58.703 96.8831 59.1996 97.6279 59.8065C98.3728 60.4134 98.9383 61.0617 99.3245 61.7514C99.7383 62.4134 99.9452 63.0479 99.9452 63.6548L98.6624 63.779V60.0134C98.6624 59.4341 98.8555 58.9375 99.2418 58.5237C99.6556 58.1099 100.152 57.903 100.731 57.903ZM92.2899 76.6068C93.5865 76.6068 94.7313 76.2758 95.7245 75.6137C96.7176 74.9516 97.49 74.0551 98.0417 72.924C98.5935 71.7654 98.8693 70.4826 98.8693 69.0756C98.8693 67.6411 98.5935 66.3583 98.0417 65.2273C97.49 64.0962 96.7176 63.1997 95.7245 62.5376C94.7313 61.8755 93.5865 61.5445 92.2899 61.5445C91.0209 61.5445 89.8899 61.8755 88.8967 62.5376C87.9312 63.1997 87.1588 64.0962 86.5794 65.2273C86.0277 66.3583 85.7518 67.6411 85.7518 69.0756C85.7518 70.4826 86.0277 71.7654 86.5794 72.924C87.1588 74.0551 87.9312 74.9516 88.8967 75.6137C89.8899 76.2758 91.0209 76.6068 92.2899 76.6068ZM107.315 76.6068C107.066 76.2206 106.956 75.7792 106.984 75.2827C107.011 74.7585 107.301 74.3171 107.853 73.9585C108.239 73.7102 108.639 73.6137 109.053 73.6688C109.494 73.6964 109.908 73.9033 110.294 74.2895C111.067 75.1447 111.922 75.8206 112.86 76.3172C113.825 76.8137 114.984 77.062 116.336 77.062C116.887 77.0344 117.453 76.9517 118.032 76.8137C118.612 76.6482 119.108 76.3723 119.522 75.9861C119.936 75.5723 120.143 74.9792 120.143 74.2068C120.143 73.5171 119.922 72.9654 119.481 72.5516C119.039 72.1378 118.46 71.8067 117.743 71.5585C117.025 71.2826 116.253 71.0343 115.425 70.8136C114.542 70.5653 113.646 70.2895 112.736 69.986C111.853 69.6826 111.053 69.2963 110.336 68.8274C109.618 68.3308 109.025 67.6963 108.556 66.9239C108.115 66.1514 107.894 65.1997 107.894 64.0686C107.894 62.7721 108.253 61.6548 108.97 60.7169C109.715 59.7789 110.667 59.0479 111.825 58.5237C113.011 57.9996 114.294 57.7375 115.674 57.7375C116.474 57.7375 117.315 57.8478 118.198 58.0685C119.081 58.2616 119.936 58.5789 120.763 59.0203C121.591 59.4617 122.308 60.041 122.915 60.7582C123.191 61.1169 123.343 61.5445 123.37 62.041C123.425 62.5376 123.205 62.979 122.708 63.3652C122.377 63.6411 121.977 63.7652 121.508 63.7376C121.039 63.71 120.653 63.5583 120.35 63.2824C119.825 62.6203 119.149 62.11 118.322 61.7514C117.494 61.3651 116.556 61.172 115.508 61.172C114.984 61.172 114.432 61.2548 113.853 61.4203C113.301 61.5583 112.832 61.8203 112.446 62.2065C112.06 62.5928 111.867 63.1583 111.867 63.9031C111.867 64.5928 112.087 65.1445 112.529 65.5583C112.998 65.9721 113.605 66.317 114.349 66.5928C115.094 66.8687 115.908 67.117 116.791 67.3377C117.646 67.5584 118.487 67.8204 119.315 68.1239C120.17 68.4274 120.929 68.8274 121.591 69.3239C122.281 69.7929 122.832 70.4136 123.246 71.186C123.688 71.9309 123.908 72.8826 123.908 74.0413C123.908 75.393 123.508 76.5517 122.708 77.5172C121.936 78.4551 120.943 79.1724 119.729 79.669C118.543 80.1655 117.287 80.4138 115.963 80.4138C114.391 80.4138 112.818 80.1379 111.246 79.5862C109.701 79.0069 108.391 78.0138 107.315 76.6068ZM132.827 77.8896C132.827 78.4965 132.62 79.0069 132.207 79.4207C131.82 79.8069 131.338 80 130.758 80C130.179 80 129.682 79.8069 129.269 79.4207C128.882 79.0069 128.689 78.4965 128.689 77.8896V51.4891C128.689 50.8822 128.896 50.3856 129.31 49.9994C129.724 49.5856 130.22 49.3787 130.8 49.3787C131.407 49.3787 131.889 49.5856 132.248 49.9994C132.634 50.3856 132.827 50.8822 132.827 51.4891V77.8896ZM142.876 77.8896C142.876 78.4965 142.683 79.0069 142.297 79.4207C141.91 79.8069 141.414 80 140.807 80C140.227 80 139.731 79.8069 139.317 79.4207C138.931 79.0069 138.738 78.4965 138.738 77.8896V60.1789C138.738 59.572 138.931 59.0754 139.317 58.6892C139.731 58.2754 140.227 58.0685 140.807 58.0685C141.414 58.0685 141.91 58.2754 142.297 58.6892C142.683 59.0754 142.876 59.572 142.876 60.1789V77.8896ZM140.765 55.3374C139.965 55.3374 139.386 55.1995 139.027 54.9236C138.669 54.6202 138.49 54.1236 138.49 53.434V52.7719C138.49 52.0822 138.683 51.5994 139.069 51.3236C139.455 51.0477 140.034 50.9098 140.807 50.9098C141.634 50.9098 142.228 51.0615 142.586 51.3649C142.945 51.6408 143.124 52.1098 143.124 52.7719V53.434C143.124 54.1512 142.931 54.6478 142.545 54.9236C142.186 55.1995 141.593 55.3374 140.765 55.3374ZM153.159 80.9104C153.159 82.4 152.856 83.6828 152.249 84.7587C151.642 85.8346 150.842 86.6622 149.849 87.2415C148.856 87.8208 147.794 88.1105 146.663 88.1105C146.083 88.1105 145.614 87.9174 145.256 87.5312C144.897 87.1726 144.718 86.7312 144.718 86.207V85.8346C144.718 85.338 144.897 84.938 145.256 84.6346C145.587 84.3311 146.001 84.0966 146.497 83.9311C147.132 83.738 147.628 83.4483 147.987 83.0621C148.373 82.7035 148.635 82.2345 148.773 81.6552C148.939 81.1035 149.021 80.4966 149.021 79.8345V60.3031C149.021 59.7237 149.215 59.241 149.601 58.8547C149.987 58.4409 150.484 58.234 151.09 58.234C151.697 58.234 152.194 58.4409 152.58 58.8547C152.966 59.241 153.159 59.7237 153.159 60.3031V80.9104ZM151.008 55.3374C150.208 55.3374 149.628 55.1995 149.27 54.9236C148.911 54.6202 148.732 54.1236 148.732 53.434V52.7719C148.732 52.0822 148.925 51.5994 149.311 51.3236C149.697 51.0477 150.277 50.9098 151.049 50.9098C151.877 50.9098 152.47 51.0615 152.828 51.3649C153.187 51.6408 153.366 52.1098 153.366 52.7719V53.434C153.366 54.1512 153.173 54.6478 152.787 54.9236C152.428 55.1995 151.835 55.3374 151.008 55.3374ZM180.613 69.117C180.613 71.324 180.13 73.2826 179.164 74.993C178.199 76.6758 176.888 78 175.233 78.9655C173.578 79.931 171.716 80.4138 169.647 80.4138C167.578 80.4138 165.716 79.931 164.061 78.9655C162.405 78 161.081 76.6758 160.088 74.993C159.122 73.2826 158.64 71.324 158.64 69.117C158.64 66.8825 159.122 64.9238 160.088 63.241C161.081 61.5307 162.405 60.1927 164.061 59.2272C165.716 58.234 167.578 57.7375 169.647 57.7375C171.716 57.7375 173.578 58.234 175.233 59.2272C176.888 60.1927 178.199 61.5307 179.164 63.241C180.13 64.9238 180.613 66.8825 180.613 69.117ZM176.475 69.117C176.475 67.5998 176.171 66.2894 175.564 65.1859C174.957 64.0549 174.13 63.1721 173.081 62.5376C172.061 61.8755 170.916 61.5445 169.647 61.5445C168.378 61.5445 167.219 61.8755 166.171 62.5376C165.123 63.1721 164.295 64.0549 163.688 65.1859C163.081 66.2894 162.778 67.5998 162.778 69.117C162.778 70.5791 163.081 71.8757 163.688 73.0068C164.295 74.1378 165.123 75.0206 166.171 75.6551C167.219 76.2896 168.378 76.6068 169.647 76.6068C170.916 76.6068 172.061 76.2896 173.081 75.6551C174.13 75.0206 174.957 74.1378 175.564 73.0068C176.171 71.8757 176.475 70.5791 176.475 69.117ZM196.262 57.7375C198.193 57.7375 199.903 58.2203 201.393 59.1858C202.91 60.1513 204.11 61.4893 204.993 63.1997C205.876 64.8825 206.317 66.8273 206.317 69.0343C206.317 71.2412 205.876 73.1999 204.993 74.9102C204.11 76.6206 202.924 77.9724 201.435 78.9655C199.945 79.931 198.262 80.4138 196.386 80.4138C195.338 80.4138 194.345 80.2483 193.407 79.9172C192.469 79.5586 191.641 79.1172 190.924 78.5931C190.207 78.0413 189.614 77.462 189.145 76.8551C188.703 76.2482 188.427 75.6827 188.317 75.1585L189.434 74.6206V78.2207C189.434 78.8 189.227 79.2965 188.814 79.7103C188.427 80.0966 187.945 80.2897 187.365 80.2897C186.758 80.2897 186.262 80.0966 185.876 79.7103C185.489 79.3241 185.296 78.8276 185.296 78.2207V51.4891C185.296 50.8822 185.489 50.3856 185.876 49.9994C186.262 49.5856 186.758 49.3787 187.365 49.3787C187.945 49.3787 188.427 49.5856 188.814 49.9994C189.227 50.3856 189.434 50.8822 189.434 51.4891V63.1169L188.772 62.7445C188.855 62.2203 189.117 61.6824 189.558 61.1307C190 60.5513 190.552 59.9996 191.214 59.4755C191.903 58.9513 192.676 58.5375 193.531 58.234C194.414 57.903 195.324 57.7375 196.262 57.7375ZM195.807 61.5445C194.483 61.5445 193.324 61.8755 192.331 62.5376C191.365 63.1997 190.607 64.0962 190.055 65.2273C189.503 66.3308 189.227 67.5998 189.227 69.0343C189.227 70.4688 189.503 71.7654 190.055 72.924C190.607 74.0551 191.365 74.9516 192.331 75.6137C193.324 76.2758 194.483 76.6068 195.807 76.6068C197.103 76.6068 198.234 76.2758 199.2 75.6137C200.166 74.9516 200.924 74.0413 201.476 72.8826C202.055 71.724 202.345 70.4412 202.345 69.0343C202.345 67.5998 202.055 66.3308 201.476 65.2273C200.924 64.0962 200.166 63.1997 199.2 62.5376C198.234 61.8755 197.103 61.5445 195.807 61.5445ZM209.714 76.6068C209.466 76.2206 209.356 75.7792 209.383 75.2827C209.411 74.7585 209.701 74.3171 210.252 73.9585C210.639 73.7102 211.039 73.6137 211.452 73.6688C211.894 73.6964 212.308 73.9033 212.694 74.2895C213.466 75.1447 214.321 75.8206 215.259 76.3172C216.225 76.8137 217.384 77.062 218.735 77.062C219.287 77.0344 219.853 76.9517 220.432 76.8137C221.011 76.6482 221.508 76.3723 221.922 75.9861C222.335 75.5723 222.542 74.9792 222.542 74.2068C222.542 73.5171 222.322 72.9654 221.88 72.5516C221.439 72.1378 220.859 71.8067 220.142 71.5585C219.425 71.2826 218.653 71.0343 217.825 70.8136C216.942 70.5653 216.046 70.2895 215.135 69.986C214.252 69.6826 213.452 69.2963 212.735 68.8274C212.018 68.3308 211.425 67.6963 210.956 66.9239C210.514 66.1514 210.294 65.1997 210.294 64.0686C210.294 62.7721 210.652 61.6548 211.37 60.7169C212.114 59.7789 213.066 59.0479 214.225 58.5237C215.411 57.9996 216.694 57.7375 218.073 57.7375C218.873 57.7375 219.715 57.8478 220.597 58.0685C221.48 58.2616 222.335 58.5789 223.163 59.0203C223.991 59.4617 224.708 60.041 225.315 60.7582C225.591 61.1169 225.742 61.5445 225.77 62.041C225.825 62.5376 225.604 62.979 225.108 63.3652C224.777 63.6411 224.377 63.7652 223.908 63.7376C223.439 63.71 223.053 63.5583 222.749 63.2824C222.225 62.6203 221.549 62.11 220.722 61.7514C219.894 61.3651 218.956 61.172 217.908 61.172C217.384 61.172 216.832 61.2548 216.253 61.4203C215.701 61.5583 215.232 61.8203 214.846 62.2065C214.459 62.5928 214.266 63.1583 214.266 63.9031C214.266 64.5928 214.487 65.1445 214.928 65.5583C215.397 65.9721 216.004 66.317 216.749 66.5928C217.494 66.8687 218.308 67.117 219.19 67.3377C220.046 67.5584 220.887 67.8204 221.715 68.1239C222.57 68.4274 223.329 68.8274 223.991 69.3239C224.68 69.7929 225.232 70.4136 225.646 71.186C226.087 71.9309 226.308 72.8826 226.308 74.0413C226.308 75.393 225.908 76.5517 225.108 77.5172C224.335 78.4551 223.342 79.1724 222.128 79.669C220.942 80.1655 219.687 80.4138 218.363 80.4138C216.79 80.4138 215.218 80.1379 213.646 79.5862C212.101 79.0069 210.79 78.0138 209.714 76.6068Z" fill="#00BAA5"/>
<defs>
<clipPath id="clip0_13926_6452">
<rect width="73" height="80" fill="white"/>
</clipPath>
</defs>
</svg>
