<svg width="213" height="70" viewBox="0 0 213 70" fill="none" xmlns="http://www.w3.org/2000/svg">
<g clip-path="url(#clip0_13929_6458)">
<path d="M37.829 1.1775L53.8093 17.1225C54.2465 17.5575 54.9965 17.25 54.9965 16.6387V0.68625C54.9965 0.3075 54.6875 0 54.303 0H38.319C37.7009 0 37.3918 0.7425 37.8253 1.1775H37.829Z" fill="#FFD54F"/>
<path d="M53.0631 17.9636C53.0631 17.9636 43.8028 8.45359 37.7687 2.83234C36.1255 1.14859 34.6632 0.278594 32.7259 0.0460938C22.7081 -0.0101563 15.3248 -0.0101563 6.12481 0.0460938C4.42502 0.162344 3.95767 1.43734 4.01421 2.36734V11.6448C4.19135 13.7298 5.24665 14.0786 6.47532 14.1948H30.3251C34.78 14.1948 37.3579 16.9173 37.3579 19.2386V21.8523C37.3579 22.2348 37.0489 22.5423 36.6645 22.5386C33.8038 22.5161 22.8249 22.4298 17.5522 22.4298C-1.35652 22.4298 -9.95345 55.9661 17.5522 60.0011H51.1296C51.1296 60.0011 54.8797 59.8848 54.9965 57.8186V24.3611C55.0531 19.7598 53.0631 17.9636 53.0631 17.9636ZM37.6255 49.7373H21.4832C15.5924 49.7373 11.194 47.7498 10.8209 41.7536C10.8209 35.8923 15.5961 33.3911 21.4832 33.3911H37.6255C38.0514 33.3911 38.3982 33.7361 38.3982 34.1598V48.9648C38.3982 49.3886 38.0514 49.7336 37.6255 49.7336V49.7373Z" fill="#00BAA5"/>
</g>
<path d="M82.8142 37.4478C83.5315 37.4478 84.1246 37.6823 84.5936 38.1513C85.0625 38.6203 85.297 39.2272 85.297 39.972V57.4758C85.297 58.1931 85.0625 58.8 84.5936 59.2965C84.1246 59.7655 83.5315 60 82.8142 60C82.097 60 81.5038 59.7655 81.0349 59.2965C80.5659 58.8 80.3314 58.1931 80.3314 57.4758V55.4482L81.2418 55.8206C81.2418 56.1792 81.0487 56.6206 80.6624 57.1448C80.2762 57.6413 79.7521 58.1379 79.09 58.6345C78.4279 59.131 77.6417 59.5586 76.7313 59.9172C75.8486 60.2483 74.883 60.4138 73.8347 60.4138C71.9312 60.4138 70.2071 59.931 68.6622 58.9655C67.1173 57.9724 65.8897 56.6206 64.9794 54.9102C64.0966 53.1723 63.6552 51.186 63.6552 48.9515C63.6552 46.6894 64.0966 44.7031 64.9794 42.9928C65.8897 41.2548 67.1036 39.903 68.6208 38.9375C70.1381 37.9444 71.8209 37.4478 73.6692 37.4478C74.8554 37.4478 75.9451 37.6271 76.9382 37.9858C77.9314 38.3444 78.7865 38.7996 79.5038 39.3513C80.2486 39.903 80.8142 40.4686 81.2004 41.0479C81.6142 41.5996 81.8211 42.0686 81.8211 42.4548L80.3314 42.9928V39.972C80.3314 39.2548 80.5659 38.6616 81.0349 38.1927C81.5038 37.6961 82.097 37.4478 82.8142 37.4478ZM74.4554 55.862C75.6692 55.862 76.7313 55.5585 77.6417 54.9516C78.5521 54.3447 79.2555 53.5171 79.7521 52.4688C80.2762 51.4205 80.5383 50.2481 80.5383 48.9515C80.5383 47.6273 80.2762 46.4411 79.7521 45.3928C79.2555 44.3445 78.5521 43.5169 77.6417 42.91C76.7313 42.3031 75.6692 41.9996 74.4554 41.9996C73.2692 41.9996 72.2209 42.3031 71.3105 42.91C70.4002 43.5169 69.6829 44.3445 69.1588 45.3928C68.6622 46.4411 68.4139 47.6273 68.4139 48.9515C68.4139 50.2481 68.6622 51.4205 69.1588 52.4688C69.6829 53.5171 70.4002 54.3447 71.3105 54.9516C72.2209 55.5585 73.2692 55.862 74.4554 55.862ZM88.5631 56.5654C88.2873 56.1792 88.1631 55.6827 88.1907 55.0758C88.2183 54.4689 88.5769 53.9447 89.2666 53.5033C89.708 53.2275 90.177 53.1171 90.6735 53.1723C91.1701 53.1999 91.6529 53.4481 92.1218 53.9171C92.9218 54.7171 93.7632 55.3378 94.646 55.7792C95.5288 56.2206 96.6323 56.4413 97.9564 56.4413C98.3702 56.4137 98.8254 56.3585 99.322 56.2758C99.8185 56.1654 100.246 55.9447 100.605 55.6137C100.991 55.2551 101.184 54.7171 101.184 53.9999C101.184 53.393 100.977 52.9102 100.563 52.5516C100.15 52.1929 99.5978 51.8895 98.9082 51.6412C98.2461 51.3929 97.5012 51.1584 96.6736 50.9378C95.8185 50.6895 94.9357 50.4136 94.0253 50.1101C93.1425 49.8067 92.3287 49.4205 91.5839 48.9515C90.839 48.4549 90.2321 47.8067 89.7632 47.0066C89.2942 46.2066 89.0597 45.1997 89.0597 43.9859C89.0597 42.6065 89.4459 41.4341 90.2183 40.4686C90.9908 39.503 91.9839 38.7582 93.1977 38.234C94.4391 37.7099 95.7357 37.4478 97.0874 37.4478C97.9426 37.4478 98.8392 37.5582 99.7772 37.7789C100.715 37.972 101.612 38.303 102.467 38.772C103.322 39.2134 104.039 39.8065 104.619 40.5513C104.922 40.9651 105.101 41.4617 105.157 42.041C105.212 42.6203 104.95 43.1445 104.37 43.6135C103.957 43.9445 103.474 44.0962 102.922 44.0686C102.37 44.0135 101.915 43.8204 101.556 43.4893C101.088 42.8824 100.453 42.3996 99.653 42.041C98.8806 41.6824 97.984 41.5031 96.9633 41.5031C96.5495 41.5031 96.0943 41.5583 95.5978 41.6686C95.1288 41.7514 94.715 41.9583 94.3564 42.2893C93.9977 42.5928 93.8184 43.0893 93.8184 43.779C93.8184 44.4135 94.0253 44.9238 94.4391 45.3101C94.8529 45.6687 95.4047 45.9721 96.0943 46.2204C96.8116 46.4411 97.5702 46.6618 98.3702 46.8825C99.1978 47.1032 100.039 47.3653 100.894 47.6687C101.75 47.9722 102.536 48.3722 103.253 48.8687C103.97 49.3653 104.55 50.0136 104.991 50.8136C105.432 51.586 105.653 52.5792 105.653 53.793C105.653 55.1999 105.239 56.3999 104.412 57.3931C103.584 58.3862 102.55 59.1448 101.308 59.669C100.067 60.1655 98.7978 60.4138 97.5012 60.4138C95.8736 60.4138 94.246 60.1379 92.6184 59.5862C90.9908 59.0069 89.639 58 88.5631 56.5654ZM114.36 57.4758C114.36 58.1931 114.112 58.8 113.616 59.2965C113.147 59.7655 112.553 60 111.836 60C111.147 60 110.567 59.7655 110.098 59.2965C109.629 58.8 109.395 58.1931 109.395 57.4758V31.9029C109.395 31.1856 109.629 30.5925 110.098 30.1235C110.595 29.627 111.202 29.3787 111.919 29.3787C112.636 29.3787 113.216 29.627 113.657 30.1235C114.126 30.5925 114.36 31.1856 114.36 31.9029V57.4758ZM123.983 57.4758C123.983 58.1931 123.748 58.8 123.279 59.2965C122.81 59.7655 122.217 60 121.5 60C120.783 60 120.189 59.7655 119.72 59.2965C119.251 58.8 119.017 58.1931 119.017 57.4758V40.3858C119.017 39.6686 119.251 39.0754 119.72 38.6065C120.189 38.1099 120.783 37.8616 121.5 37.8616C122.217 37.8616 122.81 38.1099 123.279 38.6065C123.748 39.0754 123.983 39.6686 123.983 40.3858V57.4758ZM121.458 35.1719C120.52 35.1719 119.858 35.0202 119.472 34.7167C119.086 34.4133 118.893 33.8753 118.893 33.1029V32.3167C118.893 31.5167 119.1 30.9787 119.514 30.7029C119.955 30.3994 120.617 30.2477 121.5 30.2477C122.465 30.2477 123.141 30.3994 123.527 30.7029C123.914 31.0063 124.107 31.5443 124.107 32.3167V33.1029C124.107 33.9029 123.9 34.4547 123.486 34.7581C123.072 35.034 122.396 35.1719 121.458 35.1719ZM133.845 60.4138C133.845 61.9862 133.541 63.338 132.934 64.4691C132.327 65.6277 131.514 66.5243 130.493 67.1588C129.472 67.7933 128.327 68.1105 127.058 68.1105C126.369 68.1105 125.817 67.876 125.403 67.407C124.962 66.9657 124.741 66.4277 124.741 65.7932V65.338C124.741 64.7311 124.948 64.2484 125.362 63.8897C125.748 63.5311 126.244 63.2552 126.851 63.0621C127.513 62.8414 127.982 62.5242 128.258 62.1104C128.534 61.7242 128.7 61.2552 128.755 60.7035C128.838 60.1517 128.879 59.5724 128.879 58.9655V40.3858C128.879 39.6686 129.114 39.0754 129.582 38.6065C130.051 38.1099 130.645 37.8616 131.362 37.8616C132.079 37.8616 132.672 38.1099 133.141 38.6065C133.61 39.0754 133.845 39.6686 133.845 40.3858V60.4138ZM131.279 35.1719C130.341 35.1719 129.679 35.0202 129.293 34.7167C128.907 34.4133 128.714 33.8753 128.714 33.1029V32.3167C128.714 31.5167 128.92 30.9787 129.334 30.7029C129.776 30.3994 130.438 30.2477 131.32 30.2477C132.286 30.2477 132.962 30.3994 133.348 30.7029C133.734 31.0063 133.927 31.5443 133.927 32.3167V33.1029C133.927 33.9029 133.721 34.4547 133.307 34.7581C132.893 35.034 132.217 35.1719 131.279 35.1719ZM160.303 48.9515C160.303 51.2136 159.792 53.2137 158.772 54.9516C157.779 56.662 156.427 58 154.716 58.9655C153.034 59.931 151.144 60.4138 149.047 60.4138C146.951 60.4138 145.047 59.931 143.337 58.9655C141.654 58 140.302 56.662 139.282 54.9516C138.288 53.2137 137.792 51.2136 137.792 48.9515C137.792 46.6894 138.288 44.7031 139.282 42.9928C140.302 41.2548 141.654 39.903 143.337 38.9375C145.047 37.9444 146.951 37.4478 149.047 37.4478C151.144 37.4478 153.034 37.9444 154.716 38.9375C156.427 39.903 157.779 41.2548 158.772 42.9928C159.792 44.7031 160.303 46.6894 160.303 48.9515ZM155.337 48.9515C155.337 47.5446 155.047 46.3308 154.468 45.3101C153.916 44.2618 153.158 43.4479 152.192 42.8686C151.254 42.2893 150.206 41.9996 149.047 41.9996C147.889 41.9996 146.827 42.2893 145.861 42.8686C144.923 43.4479 144.164 44.2618 143.585 45.3101C143.033 46.3308 142.758 47.5446 142.758 48.9515C142.758 50.3308 143.033 51.5447 143.585 52.593C144.164 53.6137 144.923 54.4137 145.861 54.993C146.827 55.5723 147.889 55.862 149.047 55.862C150.206 55.862 151.254 55.5723 152.192 54.993C153.158 54.4137 153.916 53.6137 154.468 52.593C155.047 51.5447 155.337 50.3308 155.337 48.9515ZM175.283 37.4478C177.214 37.4478 178.939 37.9444 180.456 38.9375C182.001 39.903 183.214 41.241 184.097 42.9514C185.008 44.6618 185.463 46.648 185.463 48.9101C185.463 51.1722 185.008 53.1723 184.097 54.9102C183.214 56.6206 182.014 57.9724 180.497 58.9655C179.008 59.931 177.325 60.4138 175.449 60.4138C174.345 60.4138 173.311 60.2345 172.345 59.8759C171.38 59.5172 170.525 59.0621 169.78 58.5103C169.062 57.9586 168.497 57.4068 168.083 56.8551C167.697 56.2758 167.504 55.793 167.504 55.4068L168.787 54.8689V57.8896C168.787 58.6069 168.552 59.2138 168.083 59.7103C167.614 60.1793 167.021 60.4138 166.304 60.4138C165.587 60.4138 164.993 60.1793 164.524 59.7103C164.055 59.2414 163.821 58.6345 163.821 57.8896V31.9029C163.821 31.1856 164.055 30.5925 164.524 30.1235C164.993 29.627 165.587 29.3787 166.304 29.3787C167.021 29.3787 167.614 29.627 168.083 30.1235C168.552 30.5925 168.787 31.1856 168.787 31.9029V42.4134L168.083 42.041C168.083 41.6824 168.276 41.2548 168.662 40.7582C169.049 40.2341 169.573 39.7237 170.235 39.2272C170.897 38.703 171.656 38.2754 172.511 37.9444C173.394 37.6133 174.318 37.4478 175.283 37.4478ZM174.663 41.9996C173.449 41.9996 172.387 42.3031 171.476 42.91C170.566 43.5169 169.849 44.3445 169.325 45.3928C168.828 46.4135 168.58 47.586 168.58 48.9101C168.58 50.2067 168.828 51.3929 169.325 52.4688C169.849 53.5171 170.566 54.3447 171.476 54.9516C172.387 55.5585 173.449 55.862 174.663 55.862C175.876 55.862 176.925 55.5585 177.807 54.9516C178.718 54.3447 179.421 53.5171 179.918 52.4688C180.442 51.3929 180.704 50.2067 180.704 48.9101C180.704 47.586 180.442 46.4135 179.918 45.3928C179.421 44.3445 178.718 43.5169 177.807 42.91C176.925 42.3031 175.876 41.9996 174.663 41.9996ZM187.694 56.5654C187.419 56.1792 187.294 55.6827 187.322 55.0758C187.35 54.4689 187.708 53.9447 188.398 53.5033C188.839 53.2275 189.308 53.1171 189.805 53.1723C190.301 53.1999 190.784 53.4481 191.253 53.9171C192.053 54.7171 192.895 55.3378 193.777 55.7792C194.66 56.2206 195.764 56.4413 197.088 56.4413C197.502 56.4137 197.957 56.3585 198.453 56.2758C198.95 56.1654 199.377 55.9447 199.736 55.6137C200.122 55.2551 200.315 54.7171 200.315 53.9999C200.315 53.393 200.108 52.9102 199.695 52.5516C199.281 52.1929 198.729 51.8895 198.039 51.6412C197.377 51.3929 196.633 51.1584 195.805 50.9378C194.95 50.6895 194.067 50.4136 193.157 50.1101C192.274 49.8067 191.46 49.4205 190.715 48.9515C189.97 48.4549 189.363 47.8067 188.894 47.0066C188.425 46.2066 188.191 45.1997 188.191 43.9859C188.191 42.6065 188.577 41.4341 189.35 40.4686C190.122 39.503 191.115 38.7582 192.329 38.234C193.57 37.7099 194.867 37.4478 196.219 37.4478C197.074 37.4478 197.97 37.5582 198.908 37.7789C199.846 37.972 200.743 38.303 201.598 38.772C202.453 39.2134 203.171 39.8065 203.75 40.5513C204.053 40.9651 204.233 41.4617 204.288 42.041C204.343 42.6203 204.081 43.1445 203.502 43.6135C203.088 43.9445 202.605 44.0962 202.053 44.0686C201.502 44.0135 201.046 43.8204 200.688 43.4893C200.219 42.8824 199.584 42.3996 198.784 42.041C198.012 41.6824 197.115 41.5031 196.095 41.5031C195.681 41.5031 195.226 41.5583 194.729 41.6686C194.26 41.7514 193.846 41.9583 193.488 42.2893C193.129 42.5928 192.95 43.0893 192.95 43.779C192.95 44.4135 193.157 44.9238 193.57 45.3101C193.984 45.6687 194.536 45.9721 195.226 46.2204C195.943 46.4411 196.701 46.6618 197.502 46.8825C198.329 47.1032 199.171 47.3653 200.026 47.6687C200.881 47.9722 201.667 48.3722 202.384 48.8687C203.102 49.3653 203.681 50.0136 204.122 50.8136C204.564 51.586 204.784 52.5792 204.784 53.793C204.784 55.1999 204.371 56.3999 203.543 57.3931C202.715 58.3862 201.681 59.1448 200.44 59.669C199.198 60.1655 197.929 60.4138 196.633 60.4138C195.005 60.4138 193.377 60.1379 191.75 59.5862C190.122 59.0069 188.77 58 187.694 56.5654Z" fill="#00BAA5"/>
<defs>
<clipPath id="clip0_13929_6458">
<rect width="55" height="60" fill="white"/>
</clipPath>
</defs>
</svg>
