<svg width="156" height="52" viewBox="0 0 156 52" fill="none" xmlns="http://www.w3.org/2000/svg">
<path d="M41.6399 12.647L50.3529 21.4172C50.591 21.6567 50.9998 21.4882 50.9998 21.1505L51 12.3784C51 12.1694 50.8305 12 50.6215 12L41.9082 12.0019C41.5717 12.002 41.4027 12.4083 41.6399 12.647Z" fill="#FFD54F"/>
<path d="M51 38.9805H41V30.3848H51V38.9805Z" fill="#00BAA5"/>
<path d="M41.3831 22.5815V24.0179C41.3831 24.2281 41.2154 24.3979 41.0051 24.3962C39.4458 24.3833 33.4602 24.3355 30.5848 24.3355C20.3299 24.3355 15.5059 42.7686 30.5848 45.001H48.8908C48.8908 45.001 50.9354 44.9372 50.9993 42.7686L51 38.9805L41.2979 38.9809H31.5965C29.2227 38.9809 27.2983 37.0566 27.2983 34.6828C27.2983 32.309 29.2227 30.3846 31.5965 30.3846L51 30.3848L50.9993 24.3674C51.0313 22.8685 49.945 21.8799 49.945 21.8799C49.945 21.8799 44.8973 16.6498 41.6067 13.5563C40.7122 12.6309 39.9135 12.1526 38.8592 12.0256C33.3962 11.9928 29.3708 11.9929 24.355 12.0256C23.4286 12.0885 23.1731 12.7901 23.2049 13.3012V18.4038C23.3009 19.551 23.8759 19.7423 24.5467 19.807C29.0195 19.8061 32.6615 19.807 37.5494 19.807C39.9775 19.807 41.3831 21.305 41.3831 22.5815Z" fill="#00BAA5"/>
<path d="M69.7115 31.8207C70.0635 31.8207 70.3515 31.9407 70.5755 32.1807C70.7995 32.4047 70.9115 32.6927 70.9115 33.0447V43.4127C70.9115 43.7647 70.7995 44.0607 70.5755 44.3007C70.3515 44.5247 70.0635 44.6367 69.7115 44.6367C69.3755 44.6367 69.0875 44.5247 68.8475 44.3007C68.6235 44.0607 68.5115 43.7647 68.5115 43.4127V41.6847L69.0155 41.7567C69.0155 42.0447 68.8955 42.3647 68.6555 42.7167C68.4315 43.0687 68.1195 43.4127 67.7195 43.7487C67.3195 44.0687 66.8475 44.3407 66.3035 44.5647C65.7595 44.7727 65.1755 44.8767 64.5515 44.8767C63.4475 44.8767 62.4555 44.5967 61.5755 44.0367C60.6955 43.4607 59.9995 42.6767 59.4875 41.6847C58.9755 40.6927 58.7195 39.5647 58.7195 38.3007C58.7195 37.0047 58.9755 35.8687 59.4875 34.8927C59.9995 33.9007 60.6875 33.1247 61.5515 32.5647C62.4315 32.0047 63.4075 31.7247 64.4795 31.7247C65.1675 31.7247 65.7995 31.8367 66.3755 32.0607C66.9675 32.2847 67.4795 32.5727 67.9115 32.9247C68.3435 33.2767 68.6715 33.6527 68.8955 34.0527C69.1355 34.4367 69.2555 34.8047 69.2555 35.1567L68.5115 35.2287V33.0447C68.5115 32.7087 68.6235 32.4207 68.8475 32.1807C69.0875 31.9407 69.3755 31.8207 69.7115 31.8207ZM64.8155 42.6687C65.5675 42.6687 66.2315 42.4767 66.8075 42.0927C67.3835 41.7087 67.8315 41.1887 68.1515 40.5327C68.4715 39.8607 68.6315 39.1167 68.6315 38.3007C68.6315 37.4687 68.4715 36.7247 68.1515 36.0687C67.8315 35.4127 67.3835 34.8927 66.8075 34.5087C66.2315 34.1247 65.5675 33.9327 64.8155 33.9327C64.0795 33.9327 63.4235 34.1247 62.8475 34.5087C62.2875 34.8927 61.8395 35.4127 61.5035 36.0687C61.1835 36.7247 61.0235 37.4687 61.0235 38.3007C61.0235 39.1167 61.1835 39.8607 61.5035 40.5327C61.8395 41.1887 62.2875 41.7087 62.8475 42.0927C63.4235 42.4767 64.0795 42.6687 64.8155 42.6687ZM73.5298 42.6687C73.3858 42.4447 73.3218 42.1887 73.3378 41.9007C73.3538 41.5967 73.5218 41.3407 73.8418 41.1327C74.0658 40.9887 74.2977 40.9327 74.5378 40.9647C74.7938 40.9807 75.0338 41.1007 75.2578 41.3247C75.7058 41.8207 76.2018 42.2127 76.7458 42.5007C77.3058 42.7887 77.9778 42.9327 78.7617 42.9327C79.0818 42.9167 79.4098 42.8687 79.7458 42.7887C80.0818 42.6927 80.3698 42.5327 80.6098 42.3087C80.8498 42.0687 80.9698 41.7247 80.9698 41.2767C80.9698 40.8767 80.8418 40.5567 80.5858 40.3167C80.3298 40.0767 79.9938 39.8847 79.5778 39.7407C79.1618 39.5807 78.7138 39.4367 78.2338 39.3087C77.7218 39.1647 77.2018 39.0047 76.6738 38.8287C76.1618 38.6527 75.6978 38.4287 75.2818 38.1567C74.8658 37.8687 74.5218 37.5007 74.2498 37.0527C73.9938 36.6047 73.8658 36.0527 73.8658 35.3967C73.8658 34.6447 74.0738 33.9967 74.4898 33.4527C74.9218 32.9087 75.4738 32.4847 76.1458 32.1807C76.8338 31.8767 77.5778 31.7247 78.3778 31.7247C78.8418 31.7247 79.3298 31.7887 79.8418 31.9167C80.3538 32.0287 80.8498 32.2127 81.3298 32.4687C81.8098 32.7247 82.2258 33.0607 82.5778 33.4767C82.7378 33.6847 82.8258 33.9327 82.8418 34.2207C82.8738 34.5087 82.7458 34.7647 82.4578 34.9887C82.2658 35.1487 82.0338 35.2207 81.7618 35.2047C81.4898 35.1887 81.2658 35.1007 81.0898 34.9407C80.7858 34.5567 80.3938 34.2607 79.9138 34.0527C79.4338 33.8287 78.8898 33.7167 78.2818 33.7167C77.9778 33.7167 77.6578 33.7647 77.3218 33.8607C77.0018 33.9407 76.7298 34.0927 76.5058 34.3167C76.2818 34.5407 76.1698 34.8687 76.1698 35.3007C76.1698 35.7007 76.2978 36.0207 76.5538 36.2607C76.8258 36.5007 77.1778 36.7007 77.6098 36.8607C78.0418 37.0207 78.5138 37.1647 79.0258 37.2927C79.5218 37.4207 80.0098 37.5727 80.4898 37.7487C80.9858 37.9247 81.4258 38.1567 81.8098 38.4447C82.2098 38.7167 82.5298 39.0767 82.7698 39.5247C83.0258 39.9567 83.1538 40.5087 83.1538 41.1807C83.1538 41.9647 82.9218 42.6367 82.4578 43.1967C82.0098 43.7407 81.4338 44.1567 80.7298 44.4447C80.0418 44.7327 79.3138 44.8767 78.5458 44.8767C77.6338 44.8767 76.7218 44.7167 75.8098 44.3967C74.9138 44.0607 74.1538 43.4847 73.5298 42.6687ZM88.3267 43.4127C88.3267 43.7647 88.2067 44.0607 87.9667 44.3007C87.7427 44.5247 87.4627 44.6367 87.1267 44.6367C86.7907 44.6367 86.5027 44.5247 86.2627 44.3007C86.0387 44.0607 85.9267 43.7647 85.9267 43.4127V28.1007C85.9267 27.7487 86.0467 27.4607 86.2867 27.2367C86.5267 26.9967 86.8147 26.8767 87.1507 26.8767C87.5027 26.8767 87.7827 26.9967 87.9907 27.2367C88.2147 27.4607 88.3267 27.7487 88.3267 28.1007V43.4127ZM94.1548 43.4127C94.1548 43.7647 94.0428 44.0607 93.8188 44.3007C93.5948 44.5247 93.3068 44.6367 92.9548 44.6367C92.6188 44.6367 92.3308 44.5247 92.0908 44.3007C91.8668 44.0607 91.7548 43.7647 91.7548 43.4127V33.1407C91.7548 32.7887 91.8668 32.5007 92.0908 32.2767C92.3308 32.0367 92.6188 31.9167 92.9548 31.9167C93.3068 31.9167 93.5948 32.0367 93.8188 32.2767C94.0428 32.5007 94.1548 32.7887 94.1548 33.1407V43.4127ZM92.9308 30.3327C92.4668 30.3327 92.1308 30.2527 91.9228 30.0927C91.7148 29.9167 91.6108 29.6287 91.6108 29.2287V28.8447C91.6108 28.4447 91.7228 28.1647 91.9468 28.0047C92.1708 27.8447 92.5068 27.7647 92.9548 27.7647C93.4348 27.7647 93.7788 27.8527 93.9868 28.0287C94.1948 28.1887 94.2988 28.4607 94.2988 28.8447V29.2287C94.2988 29.6447 94.1868 29.9327 93.9628 30.0927C93.7548 30.2527 93.4108 30.3327 92.9308 30.3327ZM100.119 45.1647C100.119 46.0287 99.9431 46.7727 99.5911 47.3967C99.2391 48.0207 98.7751 48.5007 98.1991 48.8367C97.6231 49.1727 97.0071 49.3407 96.3511 49.3407C96.0151 49.3407 95.7431 49.2287 95.5351 49.0047C95.3271 48.7967 95.2231 48.5407 95.2231 48.2367V48.0207C95.2231 47.7327 95.3271 47.5007 95.5351 47.3247C95.7271 47.1487 95.9671 47.0127 96.2551 46.9167C96.6231 46.8047 96.9111 46.6367 97.1191 46.4127C97.3431 46.2047 97.4951 45.9327 97.5751 45.5967C97.6711 45.2767 97.7191 44.9247 97.7191 44.5407V33.2127C97.7191 32.8767 97.8311 32.5967 98.0551 32.3727C98.2791 32.1327 98.5671 32.0127 98.9191 32.0127C99.2711 32.0127 99.5591 32.1327 99.7831 32.3727C100.007 32.5967 100.119 32.8767 100.119 33.2127V45.1647ZM98.8711 30.3327C98.4071 30.3327 98.0711 30.2527 97.8631 30.0927C97.6551 29.9167 97.5511 29.6287 97.5511 29.2287V28.8447C97.5511 28.4447 97.6631 28.1647 97.8871 28.0047C98.1111 27.8447 98.4471 27.7647 98.8951 27.7647C99.3751 27.7647 99.7191 27.8527 99.9271 28.0287C100.135 28.1887 100.239 28.4607 100.239 28.8447V29.2287C100.239 29.6447 100.127 29.9327 99.9031 30.0927C99.6951 30.2527 99.3511 30.3327 98.8711 30.3327ZM116.042 38.3247C116.042 39.6047 115.762 40.7407 115.202 41.7327C114.642 42.7087 113.882 43.4767 112.922 44.0367C111.962 44.5967 110.882 44.8767 109.682 44.8767C108.482 44.8767 107.402 44.5967 106.442 44.0367C105.482 43.4767 104.714 42.7087 104.138 41.7327C103.578 40.7407 103.298 39.6047 103.298 38.3247C103.298 37.0287 103.578 35.8927 104.138 34.9167C104.714 33.9247 105.482 33.1487 106.442 32.5887C107.402 32.0127 108.482 31.7247 109.682 31.7247C110.882 31.7247 111.962 32.0127 112.922 32.5887C113.882 33.1487 114.642 33.9247 115.202 34.9167C115.762 35.8927 116.042 37.0287 116.042 38.3247ZM113.642 38.3247C113.642 37.4447 113.466 36.6847 113.114 36.0447C112.762 35.3887 112.282 34.8767 111.674 34.5087C111.082 34.1247 110.418 33.9327 109.682 33.9327C108.946 33.9327 108.274 34.1247 107.666 34.5087C107.058 34.8767 106.578 35.3887 106.226 36.0447C105.874 36.6847 105.698 37.4447 105.698 38.3247C105.698 39.1727 105.874 39.9247 106.226 40.5807C106.578 41.2367 107.058 41.7487 107.666 42.1167C108.274 42.4847 108.946 42.6687 109.682 42.6687C110.418 42.6687 111.082 42.4847 111.674 42.1167C112.282 41.7487 112.762 41.2367 113.114 40.5807C113.466 39.9247 113.642 39.1727 113.642 38.3247ZM125.118 31.7247C126.238 31.7247 127.23 32.0047 128.094 32.5647C128.974 33.1247 129.67 33.9007 130.182 34.8927C130.694 35.8687 130.95 36.9967 130.95 38.2767C130.95 39.5567 130.694 40.6927 130.182 41.6847C129.67 42.6767 128.982 43.4607 128.118 44.0367C127.254 44.5967 126.278 44.8767 125.19 44.8767C124.582 44.8767 124.006 44.7807 123.462 44.5887C122.918 44.3807 122.438 44.1247 122.022 43.8207C121.606 43.5007 121.262 43.1647 120.99 42.8127C120.734 42.4607 120.574 42.1327 120.51 41.8287L121.158 41.5167V43.6047C121.158 43.9407 121.038 44.2287 120.798 44.4687C120.574 44.6927 120.294 44.8047 119.958 44.8047C119.606 44.8047 119.318 44.6927 119.094 44.4687C118.87 44.2447 118.758 43.9567 118.758 43.6047V28.1007C118.758 27.7487 118.87 27.4607 119.094 27.2367C119.318 26.9967 119.606 26.8767 119.958 26.8767C120.294 26.8767 120.574 26.9967 120.798 27.2367C121.038 27.4607 121.158 27.7487 121.158 28.1007V34.8447L120.774 34.6287C120.822 34.3247 120.974 34.0127 121.23 33.6927C121.486 33.3567 121.806 33.0367 122.19 32.7327C122.59 32.4287 123.038 32.1887 123.534 32.0127C124.046 31.8207 124.574 31.7247 125.118 31.7247ZM124.854 33.9327C124.086 33.9327 123.414 34.1247 122.838 34.5087C122.278 34.8927 121.838 35.4127 121.518 36.0687C121.198 36.7087 121.038 37.4447 121.038 38.2767C121.038 39.1087 121.198 39.8607 121.518 40.5327C121.838 41.1887 122.278 41.7087 122.838 42.0927C123.414 42.4767 124.086 42.6687 124.854 42.6687C125.606 42.6687 126.262 42.4767 126.822 42.0927C127.382 41.7087 127.822 41.1807 128.142 40.5087C128.478 39.8367 128.646 39.0927 128.646 38.2767C128.646 37.4447 128.478 36.7087 128.142 36.0687C127.822 35.4127 127.382 34.8927 126.822 34.5087C126.262 34.1247 125.606 33.9327 124.854 33.9327ZM132.92 42.6687C132.776 42.4447 132.712 42.1887 132.728 41.9007C132.744 41.5967 132.912 41.3407 133.232 41.1327C133.456 40.9887 133.688 40.9327 133.928 40.9647C134.184 40.9807 134.424 41.1007 134.648 41.3247C135.096 41.8207 135.592 42.2127 136.136 42.5007C136.696 42.7887 137.368 42.9327 138.152 42.9327C138.472 42.9167 138.8 42.8687 139.136 42.7887C139.472 42.6927 139.76 42.5327 140 42.3087C140.24 42.0687 140.36 41.7247 140.36 41.2767C140.36 40.8767 140.232 40.5567 139.976 40.3167C139.72 40.0767 139.384 39.8847 138.968 39.7407C138.552 39.5807 138.104 39.4367 137.624 39.3087C137.112 39.1647 136.592 39.0047 136.064 38.8287C135.552 38.6527 135.088 38.4287 134.672 38.1567C134.256 37.8687 133.912 37.5007 133.64 37.0527C133.384 36.6047 133.256 36.0527 133.256 35.3967C133.256 34.6447 133.464 33.9967 133.88 33.4527C134.312 32.9087 134.864 32.4847 135.536 32.1807C136.224 31.8767 136.968 31.7247 137.768 31.7247C138.232 31.7247 138.72 31.7887 139.232 31.9167C139.744 32.0287 140.24 32.2127 140.72 32.4687C141.2 32.7247 141.616 33.0607 141.968 33.4767C142.128 33.6847 142.216 33.9327 142.232 34.2207C142.264 34.5087 142.136 34.7647 141.848 34.9887C141.656 35.1487 141.424 35.2207 141.152 35.2047C140.88 35.1887 140.656 35.1007 140.48 34.9407C140.176 34.5567 139.784 34.2607 139.304 34.0527C138.824 33.8287 138.28 33.7167 137.672 33.7167C137.368 33.7167 137.048 33.7647 136.712 33.8607C136.392 33.9407 136.12 34.0927 135.896 34.3167C135.672 34.5407 135.56 34.8687 135.56 35.3007C135.56 35.7007 135.688 36.0207 135.944 36.2607C136.216 36.5007 136.568 36.7007 137 36.8607C137.432 37.0207 137.904 37.1647 138.416 37.2927C138.912 37.4207 139.4 37.5727 139.88 37.7487C140.376 37.9247 140.816 38.1567 141.2 38.4447C141.6 38.7167 141.92 39.0767 142.16 39.5247C142.416 39.9567 142.544 40.5087 142.544 41.1807C142.544 41.9647 142.312 42.6367 141.848 43.1967C141.4 43.7407 140.824 44.1567 140.12 44.4447C139.432 44.7327 138.704 44.8767 137.936 44.8767C137.024 44.8767 136.112 44.7167 135.2 44.3967C134.304 44.0607 133.544 43.4847 132.92 42.6687Z" fill="#00BAA5"/>
</svg>
